<svg xmlns="http://www.w3.org/2000/svg" viewBox="0 0 1600 900" role="img" aria-label="TV and Film cover art">
  <defs>
    <linearGradient id="sky" x1="0" y1="0" x2="1" y2="1">
      <stop offset="0" stop-color="#9775fa"/>
      <stop offset="0.55" stop-color="#6741d9"/>
      <stop offset="1" stop-color="#3b247e"/>
    </linearGradient>
  </defs>
  <rect width="1600" height="900" fill="url(#sky)"/>
  <circle cx="1360" cy="180" r="220" fill="#ffffff" fill-opacity="0.08"/>
  <circle cx="240" cy="140" r="90" fill="#ffffff" fill-opacity="0.07"/>
  <g fill="#ffffff" fill-opacity="0.55"><circle cx="92" cy="120" r="11"/><circle cx="134" cy="120" r="11"/><circle cx="176" cy="120" r="11"/></g>
  <!-- clapperboard -->
  <g transform="translate(560,300) rotate(-6)">
    <rect x="0" y="70" width="480" height="300" rx="14" fill="#20143f"/>
    <rect x="0" y="0" width="490" height="80" rx="10" fill="#2c1c56"/>
    <g fill="#ffffff">
      <path d="M10 10 l60 -6 l-30 60 l-60 6 z"/>
      <path d="M110 4 l60 -6 l-30 60 l-60 6 z"/>
      <path d="M210 -2 l60 -6 l-30 60 l-60 6 z"/>
      <path d="M310 -8 l60 -6 l-30 60 l-60 6 z"/>
      <path d="M410 -14 l60 -6 l-30 60 l-60 6 z"/>
    </g>
    <rect x="40" y="130" width="360" height="18" rx="9" fill="#4a2fa0"/>
    <rect x="40" y="180" width="300" height="18" rx="9" fill="#4a2fa0"/>
    <rect x="40" y="230" width="220" height="18" rx="9" fill="#4a2fa0"/>
  </g>
  <!-- play badge -->
  <g transform="translate(1300,620)">
    <circle r="86" fill="#ffffff" fill-opacity="0.16"/>
    <path d="M-26 -40 L44 0 L-26 40 Z" fill="#ffffff" fill-opacity="0.9"/>
  </g>
  <text x="72" y="150" font-family="'DM Mono',monospace" font-size="30" letter-spacing="8" fill="#ffffff" fill-opacity="0.9">TV &amp; FILM</text>
</svg>
